# xmcd
#
# Track frame offsets:
#	150
#	17931
#	34763
#	52180
#	71808
#	88505
#	107513
#	122671
#	141569
#	158119
#	177054
#	196959
#	215951
#
# Disc length: 3117 seconds
#
# Revision: 0
# Processed by: cddbd v1.4PL0 Copyright (c) Steve Scherf et al.
# Submitted via: EasyCDDAExtractor 4.6.9.1
#
DISCID=c20c2b0d
DTITLE=Julie Anthony - Never Stop Believing
DYEAR=2001
DGENRE=Easy Listening
TTITLE0=Fly
TTITLE1=Truth In Your Eyes
TTITLE2=Move On Up
TTITLE3=Never Stop Believing
TTITLE4=Coming Around Again
TTITLE5=When I Need You
TTITLE6=Keep Coming Back To You
TTITLE7=Love Is A Gift
TTITLE8=Goin' Back
TTITLE9=Heaven Will Be Near Me
TTITLE10=I'll Never Let You Fall
TTITLE11=It Will Always Be You
TTITLE12=Welcome
EXTD=
EXTT0=
EXTT1=
EXTT2=
EXTT3=
EXTT4=
EXTT5=
EXTT6=
EXTT7=
EXTT8=
EXTT9=
EXTT10=
EXTT11=
EXTT12=
PLAYORDER=
